<?xml version="1.0" encoding="utf-8"?>
<svg xmlns="http://www.w3.org/2000/svg" xmlns:xlink="http://www.w3.org/1999/xlink" style="margin: auto; background: rgb(255, 255, 255); display: block; shape-rendering: auto;" width="230px" height="230px" viewBox="0 0 100 100" preserveAspectRatio="xMidYMid">
<g transform="rotate(0 50 50)">
  <rect x="48" y="12" rx="2" ry="14" width="4" height="28" fill="#0a0a0a">
    <animate attributeName="opacity" values="1;0" keyTimes="0;1" dur="0.5882352941176471s" begin="-0.5751633986928104s" repeatCount="indefinite"></animate>
  </rect>
</g><g transform="rotate(8 50 50)">
  <rect x="48" y="12" rx="2" ry="14" width="4" height="28" fill="#0a0a0a">
    <animate attributeName="opacity" values="1;0" keyTimes="0;1" dur="0.5882352941176471s" begin="-0.5620915032679739s" repeatCount="indefinite"></animate>
  </rect>
</g><g transform="rotate(16 50 50)">
  <rect x="48" y="12" rx="2" ry="14" width="4" height="28" fill="#0a0a0a">
    <animate attributeName="opacity" values="1;0" keyTimes="0;1" dur="0.5882352941176471s" begin="-0.5490196078431373s" repeatCount="indefinite"></animate>
  </rect>
</g><g transform="rotate(24 50 50)">
  <rect x="48" y="12" rx="2" ry="14" width="4" height="28" fill="#0a0a0a">
    <animate attributeName="opacity" values="1;0" keyTimes="0;1" dur="0.5882352941176471s" begin="-0.5359477124183006s" repeatCount="indefinite"></animate>
  </rect>
</g><g transform="rotate(32 50 50)">
  <rect x="48" y="12" rx="2" ry="14" width="4" height="28" fill="#0a0a0a">
    <animate attributeName="opacity" values="1;0" keyTimes="0;1" dur="0.5882352941176471s" begin="-0.5228758169934641s" repeatCount="indefinite"></animate>
  </rect>
</g><g transform="rotate(40 50 50)">
  <rect x="48" y="12" rx="2" ry="14" width="4" height="28" fill="#0a0a0a">
    <animate attributeName="opacity" values="1;0" keyTimes="0;1" dur="0.5882352941176471s" begin="-0.5098039215686274s" repeatCount="indefinite"></animate>
  </rect>
</g><g transform="rotate(48 50 50)">
  <rect x="48" y="12" rx="2" ry="14" width="4" height="28" fill="#0a0a0a">
    <animate attributeName="opacity" values="1;0" keyTimes="0;1" dur="0.5882352941176471s" begin="-0.49673202614379086s" repeatCount="indefinite"></animate>
  </rect>
</g><g transform="rotate(56 50 50)">
  <rect x="48" y="12" rx="2" ry="14" width="4" height="28" fill="#0a0a0a">
    <animate attributeName="opacity" values="1;0" keyTimes="0;1" dur="0.5882352941176471s" begin="-0.48366013071895425s" repeatCount="indefinite"></animate>
  </rect>
</g><g transform="rotate(64 50 50)">
  <rect x="48" y="12" rx="2" ry="14" width="4" height="28" fill="#0a0a0a">
    <animate attributeName="opacity" values="1;0" keyTimes="0;1" dur="0.5882352941176471s" begin="-0.47058823529411764s" repeatCount="indefinite"></animate>
  </rect>
</g><g transform="rotate(72 50 50)">
  <rect x="48" y="12" rx="2" ry="14" width="4" height="28" fill="#0a0a0a">
    <animate attributeName="opacity" values="1;0" keyTimes="0;1" dur="0.5882352941176471s" begin="-0.45751633986928103s" repeatCount="indefinite"></animate>
  </rect>
</g><g transform="rotate(80 50 50)">
  <rect x="48" y="12" rx="2" ry="14" width="4" height="28" fill="#0a0a0a">
    <animate attributeName="opacity" values="1;0" keyTimes="0;1" dur="0.5882352941176471s" begin="-0.4444444444444444s" repeatCount="indefinite"></animate>
  </rect>
</g><g transform="rotate(88 50 50)">
  <rect x="48" y="12" rx="2" ry="14" width="4" height="28" fill="#0a0a0a">
    <animate attributeName="opacity" values="1;0" keyTimes="0;1" dur="0.5882352941176471s" begin="-0.43137254901960786s" repeatCount="indefinite"></animate>
  </rect>
</g><g transform="rotate(96 50 50)">
  <rect x="48" y="12" rx="2" ry="14" width="4" height="28" fill="#0a0a0a">
    <animate attributeName="opacity" values="1;0" keyTimes="0;1" dur="0.5882352941176471s" begin="-0.41830065359477125s" repeatCount="indefinite"></animate>
  </rect>
</g><g transform="rotate(104 50 50)">
  <rect x="48" y="12" rx="2" ry="14" width="4" height="28" fill="#0a0a0a">
    <animate attributeName="opacity" values="1;0" keyTimes="0;1" dur="0.5882352941176471s" begin="-0.40522875816993464s" repeatCount="indefinite"></animate>
  </rect>
</g><g transform="rotate(112 50 50)">
  <rect x="48" y="12" rx="2" ry="14" width="4" height="28" fill="#0a0a0a">
    <animate attributeName="opacity" values="1;0" keyTimes="0;1" dur="0.5882352941176471s" begin="-0.39215686274509803s" repeatCount="indefinite"></animate>
  </rect>
</g><g transform="rotate(120 50 50)">
  <rect x="48" y="12" rx="2" ry="14" width="4" height="28" fill="#0a0a0a">
    <animate attributeName="opacity" values="1;0" keyTimes="0;1" dur="0.5882352941176471s" begin="-0.3790849673202614s" repeatCount="indefinite"></animate>
  </rect>
</g><g transform="rotate(128 50 50)">
  <rect x="48" y="12" rx="2" ry="14" width="4" height="28" fill="#0a0a0a">
    <animate attributeName="opacity" values="1;0" keyTimes="0;1" dur="0.5882352941176471s" begin="-0.3660130718954248s" repeatCount="indefinite"></animate>
  </rect>
</g><g transform="rotate(136 50 50)">
  <rect x="48" y="12" rx="2" ry="14" width="4" height="28" fill="#0a0a0a">
    <animate attributeName="opacity" values="1;0" keyTimes="0;1" dur="0.5882352941176471s" begin="-0.35294117647058826s" repeatCount="indefinite"></animate>
  </rect>
</g><g transform="rotate(144 50 50)">
  <rect x="48" y="12" rx="2" ry="14" width="4" height="28" fill="#0a0a0a">
    <animate attributeName="opacity" values="1;0" keyTimes="0;1" dur="0.5882352941176471s" begin="-0.33986928104575165s" repeatCount="indefinite"></animate>
  </rect>
</g><g transform="rotate(152 50 50)">
  <rect x="48" y="12" rx="2" ry="14" width="4" height="28" fill="#0a0a0a">
    <animate attributeName="opacity" values="1;0" keyTimes="0;1" dur="0.5882352941176471s" begin="-0.32679738562091504s" repeatCount="indefinite"></animate>
  </rect>
</g><g transform="rotate(160 50 50)">
  <rect x="48" y="12" rx="2" ry="14" width="4" height="28" fill="#0a0a0a">
    <animate attributeName="opacity" values="1;0" keyTimes="0;1" dur="0.5882352941176471s" begin="-0.3137254901960784s" repeatCount="indefinite"></animate>
  </rect>
</g><g transform="rotate(168 50 50)">
  <rect x="48" y="12" rx="2" ry="14" width="4" height="28" fill="#0a0a0a">
    <animate attributeName="opacity" values="1;0" keyTimes="0;1" dur="0.5882352941176471s" begin="-0.3006535947712418s" repeatCount="indefinite"></animate>
  </rect>
</g><g transform="rotate(176 50 50)">
  <rect x="48" y="12" rx="2" ry="14" width="4" height="28" fill="#0a0a0a">
    <animate attributeName="opacity" values="1;0" keyTimes="0;1" dur="0.5882352941176471s" begin="-0.2875816993464052s" repeatCount="indefinite"></animate>
  </rect>
</g><g transform="rotate(184 50 50)">
  <rect x="48" y="12" rx="2" ry="14" width="4" height="28" fill="#0a0a0a">
    <animate attributeName="opacity" values="1;0" keyTimes="0;1" dur="0.5882352941176471s" begin="-0.27450980392156865s" repeatCount="indefinite"></animate>
  </rect>
</g><g transform="rotate(192 50 50)">
  <rect x="48" y="12" rx="2" ry="14" width="4" height="28" fill="#0a0a0a">
    <animate attributeName="opacity" values="1;0" keyTimes="0;1" dur="0.5882352941176471s" begin="-0.26143790849673204s" repeatCount="indefinite"></animate>
  </rect>
</g><g transform="rotate(200 50 50)">
  <rect x="48" y="12" rx="2" ry="14" width="4" height="28" fill="#0a0a0a">
    <animate attributeName="opacity" values="1;0" keyTimes="0;1" dur="0.5882352941176471s" begin="-0.24836601307189543s" repeatCount="indefinite"></animate>
  </rect>
</g><g transform="rotate(208 50 50)">
  <rect x="48" y="12" rx="2" ry="14" width="4" height="28" fill="#0a0a0a">
    <animate attributeName="opacity" values="1;0" keyTimes="0;1" dur="0.5882352941176471s" begin="-0.23529411764705882s" repeatCount="indefinite"></animate>
  </rect>
</g><g transform="rotate(216 50 50)">
  <rect x="48" y="12" rx="2" ry="14" width="4" height="28" fill="#0a0a0a">
    <animate attributeName="opacity" values="1;0" keyTimes="0;1" dur="0.5882352941176471s" begin="-0.2222222222222222s" repeatCount="indefinite"></animate>
  </rect>
</g><g transform="rotate(224 50 50)">
  <rect x="48" y="12" rx="2" ry="14" width="4" height="28" fill="#0a0a0a">
    <animate attributeName="opacity" values="1;0" keyTimes="0;1" dur="0.5882352941176471s" begin="-0.20915032679738563s" repeatCount="indefinite"></animate>
  </rect>
</g><g transform="rotate(232 50 50)">
  <rect x="48" y="12" rx="2" ry="14" width="4" height="28" fill="#0a0a0a">
    <animate attributeName="opacity" values="1;0" keyTimes="0;1" dur="0.5882352941176471s" begin="-0.19607843137254902s" repeatCount="indefinite"></animate>
  </rect>
</g><g transform="rotate(240 50 50)">
  <rect x="48" y="12" rx="2" ry="14" width="4" height="28" fill="#0a0a0a">
    <animate attributeName="opacity" values="1;0" keyTimes="0;1" dur="0.5882352941176471s" begin="-0.1830065359477124s" repeatCount="indefinite"></animate>
  </rect>
</g><g transform="rotate(248 50 50)">
  <rect x="48" y="12" rx="2" ry="14" width="4" height="28" fill="#0a0a0a">
    <animate attributeName="opacity" values="1;0" keyTimes="0;1" dur="0.5882352941176471s" begin="-0.16993464052287582s" repeatCount="indefinite"></animate>
  </rect>
</g><g transform="rotate(256 50 50)">
  <rect x="48" y="12" rx="2" ry="14" width="4" height="28" fill="#0a0a0a">
    <animate attributeName="opacity" values="1;0" keyTimes="0;1" dur="0.5882352941176471s" begin="-0.1568627450980392s" repeatCount="indefinite"></animate>
  </rect>
</g><g transform="rotate(264 50 50)">
  <rect x="48" y="12" rx="2" ry="14" width="4" height="28" fill="#0a0a0a">
    <animate attributeName="opacity" values="1;0" keyTimes="0;1" dur="0.5882352941176471s" begin="-0.1437908496732026s" repeatCount="indefinite"></animate>
  </rect>
</g><g transform="rotate(272 50 50)">
  <rect x="48" y="12" rx="2" ry="14" width="4" height="28" fill="#0a0a0a">
    <animate attributeName="opacity" values="1;0" keyTimes="0;1" dur="0.5882352941176471s" begin="-0.13071895424836602s" repeatCount="indefinite"></animate>
  </rect>
</g><g transform="rotate(280 50 50)">
  <rect x="48" y="12" rx="2" ry="14" width="4" height="28" fill="#0a0a0a">
    <animate attributeName="opacity" values="1;0" keyTimes="0;1" dur="0.5882352941176471s" begin="-0.11764705882352941s" repeatCount="indefinite"></animate>
  </rect>
</g><g transform="rotate(288 50 50)">
  <rect x="48" y="12" rx="2" ry="14" width="4" height="28" fill="#0a0a0a">
    <animate attributeName="opacity" values="1;0" keyTimes="0;1" dur="0.5882352941176471s" begin="-0.10457516339869281s" repeatCount="indefinite"></animate>
  </rect>
</g><g transform="rotate(296 50 50)">
  <rect x="48" y="12" rx="2" ry="14" width="4" height="28" fill="#0a0a0a">
    <animate attributeName="opacity" values="1;0" keyTimes="0;1" dur="0.5882352941176471s" begin="-0.0915032679738562s" repeatCount="indefinite"></animate>
  </rect>
</g><g transform="rotate(304 50 50)">
  <rect x="48" y="12" rx="2" ry="14" width="4" height="28" fill="#0a0a0a">
    <animate attributeName="opacity" values="1;0" keyTimes="0;1" dur="0.5882352941176471s" begin="-0.0784313725490196s" repeatCount="indefinite"></animate>
  </rect>
</g><g transform="rotate(312 50 50)">
  <rect x="48" y="12" rx="2" ry="14" width="4" height="28" fill="#0a0a0a">
    <animate attributeName="opacity" values="1;0" keyTimes="0;1" dur="0.5882352941176471s" begin="-0.06535947712418301s" repeatCount="indefinite"></animate>
  </rect>
</g><g transform="rotate(320 50 50)">
  <rect x="48" y="12" rx="2" ry="14" width="4" height="28" fill="#0a0a0a">
    <animate attributeName="opacity" values="1;0" keyTimes="0;1" dur="0.5882352941176471s" begin="-0.05228758169934641s" repeatCount="indefinite"></animate>
  </rect>
</g><g transform="rotate(328 50 50)">
  <rect x="48" y="12" rx="2" ry="14" width="4" height="28" fill="#0a0a0a">
    <animate attributeName="opacity" values="1;0" keyTimes="0;1" dur="0.5882352941176471s" begin="-0.0392156862745098s" repeatCount="indefinite"></animate>
  </rect>
</g><g transform="rotate(336 50 50)">
  <rect x="48" y="12" rx="2" ry="14" width="4" height="28" fill="#0a0a0a">
    <animate attributeName="opacity" values="1;0" keyTimes="0;1" dur="0.5882352941176471s" begin="-0.026143790849673203s" repeatCount="indefinite"></animate>
  </rect>
</g><g transform="rotate(344 50 50)">
  <rect x="48" y="12" rx="2" ry="14" width="4" height="28" fill="#0a0a0a">
    <animate attributeName="opacity" values="1;0" keyTimes="0;1" dur="0.5882352941176471s" begin="-0.013071895424836602s" repeatCount="indefinite"></animate>
  </rect>
</g><g transform="rotate(352 50 50)">
  <rect x="48" y="12" rx="2" ry="14" width="4" height="28" fill="#0a0a0a">
    <animate attributeName="opacity" values="1;0" keyTimes="0;1" dur="0.5882352941176471s" begin="0s" repeatCount="indefinite"></animate>
  </rect>
</g>
<!-- [ldio] generated by https://loading.io/ --></svg>